<mxfile host="Electron" agent="Mozilla/5.0 (Windows NT 10.0; Win64; x64) AppleWebKit/537.36 (KHTML, like Gecko) draw.io/24.7.17 Chrome/128.0.6613.36 Electron/32.0.1 Safari/537.36" version="24.7.17">
  <diagram name="Página-1" id="rNt78PZXy2u25boyoFhb">
    <mxGraphModel dx="2261" dy="836" grid="1" gridSize="10" guides="1" tooltips="1" connect="1" arrows="1" fold="1" page="1" pageScale="1" pageWidth="827" pageHeight="1169" math="0" shadow="0">
      <root>
        <mxCell id="0" />
        <mxCell id="1" parent="0" />
        <mxCell id="F2csIStEhCxj-uNkogdH-6" value="" style="rounded=0;whiteSpace=wrap;html=1;" vertex="1" parent="1">
          <mxGeometry x="-40" width="920" height="560" as="geometry" />
        </mxCell>
        <mxCell id="otp8bmyYLoLBYLXnSVH9-1" value="" style="rounded=1;whiteSpace=wrap;html=1;" parent="1" vertex="1">
          <mxGeometry y="250" width="120" height="120" as="geometry" />
        </mxCell>
        <mxCell id="otp8bmyYLoLBYLXnSVH9-2" value="" style="rounded=1;whiteSpace=wrap;html=1;" parent="1" vertex="1">
          <mxGeometry x="340" y="40" width="120" height="100" as="geometry" />
        </mxCell>
        <mxCell id="otp8bmyYLoLBYLXnSVH9-3" value="" style="rounded=1;whiteSpace=wrap;html=1;" parent="1" vertex="1">
          <mxGeometry x="680" y="250" width="130" height="120" as="geometry" />
        </mxCell>
        <mxCell id="otp8bmyYLoLBYLXnSVH9-4" value="" style="rounded=0;whiteSpace=wrap;html=1;" parent="1" vertex="1">
          <mxGeometry x="160" y="200" width="480" height="240" as="geometry" />
        </mxCell>
        <mxCell id="otp8bmyYLoLBYLXnSVH9-5" value="Otros sistemas" style="text;html=1;strokeColor=none;fillColor=none;align=center;verticalAlign=middle;whiteSpace=wrap;rounded=0;" parent="1" vertex="1">
          <mxGeometry x="355" y="60" width="90" height="30" as="geometry" />
        </mxCell>
        <mxCell id="otp8bmyYLoLBYLXnSVH9-6" value="Entidades externas&lt;br&gt;" style="text;html=1;strokeColor=none;fillColor=none;align=center;verticalAlign=middle;whiteSpace=wrap;rounded=0;" parent="1" vertex="1">
          <mxGeometry x="691" y="260" width="110" height="30" as="geometry" />
        </mxCell>
        <mxCell id="otp8bmyYLoLBYLXnSVH9-7" value="(RDBMS, BPM IBM, FIEL, RENAPO, IDC, Colas de mensajes)" style="text;html=1;strokeColor=none;fillColor=none;align=center;verticalAlign=middle;whiteSpace=wrap;rounded=0;" parent="1" vertex="1">
          <mxGeometry x="688" y="305" width="120" height="30" as="geometry" />
        </mxCell>
        <mxCell id="otp8bmyYLoLBYLXnSVH9-9" value="Web browser" style="text;html=1;strokeColor=none;fillColor=none;align=center;verticalAlign=middle;whiteSpace=wrap;rounded=0;" parent="1" vertex="1">
          <mxGeometry x="20" y="260" width="80" height="30" as="geometry" />
        </mxCell>
        <mxCell id="otp8bmyYLoLBYLXnSVH9-10" value="" style="endArrow=none;html=1;rounded=0;entryX=1;entryY=0.75;entryDx=0;entryDy=0;exitX=0;exitY=0.75;exitDx=0;exitDy=0;" parent="1" source="otp8bmyYLoLBYLXnSVH9-4" target="otp8bmyYLoLBYLXnSVH9-4" edge="1">
          <mxGeometry width="50" height="50" relative="1" as="geometry">
            <mxPoint x="290" y="350" as="sourcePoint" />
            <mxPoint x="340" y="300" as="targetPoint" />
          </mxGeometry>
        </mxCell>
        <mxCell id="otp8bmyYLoLBYLXnSVH9-11" value="" style="endArrow=none;html=1;rounded=0;" parent="1" edge="1">
          <mxGeometry width="50" height="50" relative="1" as="geometry">
            <mxPoint x="320" y="380" as="sourcePoint" />
            <mxPoint x="320" y="200" as="targetPoint" />
          </mxGeometry>
        </mxCell>
        <mxCell id="otp8bmyYLoLBYLXnSVH9-12" value="" style="endArrow=none;html=1;rounded=0;entryX=0.671;entryY=0.003;entryDx=0;entryDy=0;entryPerimeter=0;" parent="1" target="otp8bmyYLoLBYLXnSVH9-4" edge="1">
          <mxGeometry width="50" height="50" relative="1" as="geometry">
            <mxPoint x="482" y="380" as="sourcePoint" />
            <mxPoint x="340" y="300" as="targetPoint" />
          </mxGeometry>
        </mxCell>
        <mxCell id="otp8bmyYLoLBYLXnSVH9-13" value="Capa de presentación&amp;nbsp;" style="text;html=1;strokeColor=none;fillColor=none;align=center;verticalAlign=middle;whiteSpace=wrap;rounded=0;" parent="1" vertex="1">
          <mxGeometry x="160" y="220" width="150" height="30" as="geometry" />
        </mxCell>
        <mxCell id="otp8bmyYLoLBYLXnSVH9-14" value="Capa de servicios" style="text;html=1;strokeColor=none;fillColor=none;align=center;verticalAlign=middle;whiteSpace=wrap;rounded=0;" parent="1" vertex="1">
          <mxGeometry x="350" y="220" width="100" height="30" as="geometry" />
        </mxCell>
        <mxCell id="otp8bmyYLoLBYLXnSVH9-15" value="Capa de integración" style="text;html=1;strokeColor=none;fillColor=none;align=center;verticalAlign=middle;whiteSpace=wrap;rounded=0;" parent="1" vertex="1">
          <mxGeometry x="500" y="220" width="130" height="30" as="geometry" />
        </mxCell>
        <mxCell id="otp8bmyYLoLBYLXnSVH9-16" value="Servicios de infraestructura" style="text;html=1;strokeColor=none;fillColor=none;align=center;verticalAlign=middle;whiteSpace=wrap;rounded=0;" parent="1" vertex="1">
          <mxGeometry x="320" y="410" width="160" height="30" as="geometry" />
        </mxCell>
        <mxCell id="otp8bmyYLoLBYLXnSVH9-25" value="" style="endArrow=none;dashed=1;html=1;dashPattern=1 3;strokeWidth=2;rounded=0;startArrow=blockThin;startFill=1;" parent="1" edge="1">
          <mxGeometry width="50" height="50" relative="1" as="geometry">
            <mxPoint x="271" y="318" as="sourcePoint" />
            <mxPoint x="356" y="318" as="targetPoint" />
          </mxGeometry>
        </mxCell>
        <mxCell id="otp8bmyYLoLBYLXnSVH9-30" value="" style="endArrow=none;dashed=1;html=1;dashPattern=1 3;strokeWidth=2;rounded=0;startArrow=blockThin;startFill=1;" parent="1" edge="1">
          <mxGeometry width="50" height="50" relative="1" as="geometry">
            <mxPoint x="438" y="318" as="sourcePoint" />
            <mxPoint x="523" y="318" as="targetPoint" />
          </mxGeometry>
        </mxCell>
        <mxCell id="otp8bmyYLoLBYLXnSVH9-31" value="" style="endArrow=none;dashed=1;html=1;dashPattern=1 3;strokeWidth=2;rounded=0;startArrow=blockThin;startFill=1;" parent="1" edge="1">
          <mxGeometry width="50" height="50" relative="1" as="geometry">
            <mxPoint x="605" y="319" as="sourcePoint" />
            <mxPoint x="690" y="319" as="targetPoint" />
          </mxGeometry>
        </mxCell>
        <mxCell id="otp8bmyYLoLBYLXnSVH9-32" value="" style="endArrow=none;dashed=1;html=1;dashPattern=1 3;strokeWidth=2;rounded=0;startArrow=blockThin;startFill=1;" parent="1" edge="1">
          <mxGeometry width="50" height="50" relative="1" as="geometry">
            <mxPoint x="96" y="319" as="sourcePoint" />
            <mxPoint x="181" y="319" as="targetPoint" />
          </mxGeometry>
        </mxCell>
        <mxCell id="otp8bmyYLoLBYLXnSVH9-34" value="" style="endArrow=none;dashed=1;html=1;dashPattern=1 3;strokeWidth=2;rounded=0;startArrow=blockThin;startFill=1;" parent="1" edge="1">
          <mxGeometry width="50" height="50" relative="1" as="geometry">
            <mxPoint x="249" y="344" as="sourcePoint" />
            <mxPoint x="249" y="404" as="targetPoint" />
          </mxGeometry>
        </mxCell>
        <mxCell id="otp8bmyYLoLBYLXnSVH9-36" value="" style="endArrow=none;dashed=1;html=1;dashPattern=1 3;strokeWidth=2;rounded=0;startArrow=blockThin;startFill=1;" parent="1" edge="1">
          <mxGeometry width="50" height="50" relative="1" as="geometry">
            <mxPoint x="415" y="342" as="sourcePoint" />
            <mxPoint x="415" y="402" as="targetPoint" />
          </mxGeometry>
        </mxCell>
        <mxCell id="otp8bmyYLoLBYLXnSVH9-37" value="" style="endArrow=none;dashed=1;html=1;dashPattern=1 3;strokeWidth=2;rounded=0;startArrow=blockThin;startFill=1;" parent="1" edge="1">
          <mxGeometry width="50" height="50" relative="1" as="geometry">
            <mxPoint x="576" y="342" as="sourcePoint" />
            <mxPoint x="576" y="402" as="targetPoint" />
          </mxGeometry>
        </mxCell>
        <mxCell id="otp8bmyYLoLBYLXnSVH9-38" value="" style="endArrow=none;dashed=1;html=1;dashPattern=1 3;strokeWidth=2;rounded=0;startArrow=blockThin;startFill=1;entryX=0.65;entryY=0.005;entryDx=0;entryDy=0;entryPerimeter=0;" parent="1" target="otp8bmyYLoLBYLXnSVH9-14" edge="1">
          <mxGeometry width="50" height="50" relative="1" as="geometry">
            <mxPoint x="414" y="114" as="sourcePoint" />
            <mxPoint x="414.20000000000005" y="210.32000000000005" as="targetPoint" />
          </mxGeometry>
        </mxCell>
        <mxCell id="otp8bmyYLoLBYLXnSVH9-41" value="" style="endArrow=classic;html=1;rounded=0;" parent="1" edge="1">
          <mxGeometry width="50" height="50" relative="1" as="geometry">
            <mxPoint x="100" y="290" as="sourcePoint" />
            <mxPoint x="180" y="290" as="targetPoint" />
          </mxGeometry>
        </mxCell>
        <mxCell id="otp8bmyYLoLBYLXnSVH9-42" value="" style="endArrow=classic;html=1;rounded=0;" parent="1" edge="1">
          <mxGeometry width="50" height="50" relative="1" as="geometry">
            <mxPoint x="270" y="290" as="sourcePoint" />
            <mxPoint x="350" y="290" as="targetPoint" />
          </mxGeometry>
        </mxCell>
        <mxCell id="otp8bmyYLoLBYLXnSVH9-43" value="" style="endArrow=classic;html=1;rounded=0;" parent="1" edge="1">
          <mxGeometry width="50" height="50" relative="1" as="geometry">
            <mxPoint x="440" y="290" as="sourcePoint" />
            <mxPoint x="520" y="290" as="targetPoint" />
          </mxGeometry>
        </mxCell>
        <mxCell id="otp8bmyYLoLBYLXnSVH9-44" value="" style="endArrow=classic;html=1;rounded=0;" parent="1" edge="1">
          <mxGeometry width="50" height="50" relative="1" as="geometry">
            <mxPoint x="611" y="290" as="sourcePoint" />
            <mxPoint x="700" y="290" as="targetPoint" />
          </mxGeometry>
        </mxCell>
        <mxCell id="otp8bmyYLoLBYLXnSVH9-45" value="" style="endArrow=classic;html=1;rounded=0;" parent="1" edge="1">
          <mxGeometry width="50" height="50" relative="1" as="geometry">
            <mxPoint x="220" y="335" as="sourcePoint" />
            <mxPoint x="220" y="406.21210271661937" as="targetPoint" />
          </mxGeometry>
        </mxCell>
        <mxCell id="otp8bmyYLoLBYLXnSVH9-46" value="" style="endArrow=classic;html=1;rounded=0;" parent="1" edge="1">
          <mxGeometry width="50" height="50" relative="1" as="geometry">
            <mxPoint x="380" y="335" as="sourcePoint" />
            <mxPoint x="380" y="406.21210271661937" as="targetPoint" />
          </mxGeometry>
        </mxCell>
        <mxCell id="otp8bmyYLoLBYLXnSVH9-47" value="" style="endArrow=classic;html=1;rounded=0;" parent="1" edge="1">
          <mxGeometry width="50" height="50" relative="1" as="geometry">
            <mxPoint x="550" y="335" as="sourcePoint" />
            <mxPoint x="550" y="406.21210271661937" as="targetPoint" />
          </mxGeometry>
        </mxCell>
        <mxCell id="otp8bmyYLoLBYLXnSVH9-48" value="" style="endArrow=classic;html=1;rounded=0;" parent="1" edge="1">
          <mxGeometry width="50" height="50" relative="1" as="geometry">
            <mxPoint x="380" y="114" as="sourcePoint" />
            <mxPoint x="380" y="214.0021027166194" as="targetPoint" />
          </mxGeometry>
        </mxCell>
        <mxCell id="F2csIStEhCxj-uNkogdH-1" value="" style="rounded=0;whiteSpace=wrap;html=1;" vertex="1" parent="1">
          <mxGeometry y="470" width="132" height="50" as="geometry" />
        </mxCell>
        <mxCell id="F2csIStEhCxj-uNkogdH-2" value="" style="endArrow=classic;html=1;rounded=0;" edge="1" parent="1">
          <mxGeometry width="50" height="50" relative="1" as="geometry">
            <mxPoint x="72" y="487" as="sourcePoint" />
            <mxPoint x="124" y="486.76" as="targetPoint" />
          </mxGeometry>
        </mxCell>
        <mxCell id="F2csIStEhCxj-uNkogdH-3" value="Request&amp;nbsp;" style="text;html=1;strokeColor=none;fillColor=none;align=center;verticalAlign=middle;whiteSpace=wrap;rounded=0;" vertex="1" parent="1">
          <mxGeometry x="2" y="477" width="50" height="20" as="geometry" />
        </mxCell>
        <mxCell id="F2csIStEhCxj-uNkogdH-4" value="" style="endArrow=none;html=1;rounded=0;dashed=1;endFill=0;startArrow=classic;startFill=1;" edge="1" parent="1">
          <mxGeometry width="50" height="50" relative="1" as="geometry">
            <mxPoint x="72" y="506.76" as="sourcePoint" />
            <mxPoint x="122" y="507" as="targetPoint" />
          </mxGeometry>
        </mxCell>
        <mxCell id="F2csIStEhCxj-uNkogdH-5" value="Response" style="text;html=1;strokeColor=none;fillColor=none;align=center;verticalAlign=middle;whiteSpace=wrap;rounded=0;" vertex="1" parent="1">
          <mxGeometry y="497" width="60" height="20" as="geometry" />
        </mxCell>
      </root>
    </mxGraphModel>
  </diagram>
</mxfile>
